CalSansUI-Bold.ufo
<glyph name="comma" format="2">
  <advance width="280"/>
  <unicode hex="002C"/>
  <outline>
    <contour>
      <point x="101" y="155" type="line"/>
      <point x="96" y="81" type="line" smooth="yes"/>
      <point x="90" y="-15"/>
      <point x="59" y="-89"/>
      <point x="24" y="-156" type="curve"/>
      <point x="77" y="-185" type="line"/>
      <point x="157" y="-102"/>
      <point x="198" y="-20"/>
      <point x="215" y="78" type="curve" smooth="yes"/>
      <point x="227" y="147" type="line"/>
    </contour>
  </outline>
</glyph>
<glyph name="four" format="2">
  <advance width="613"/>
  <unicode hex="0034"/>
  <outline>
    <contour>
      <point x="333" y="0" type="line"/>
      <point x="468" y="0" type="line"/>
      <point x="468" y="700" type="line"/>
      <point x="369" y="700" type="line"/>
      <point x="21" y="238" type="line"/>
      <point x="21" y="193" type="line"/>
      <point x="548" y="193" type="line"/>
      <point x="548" y="305" type="line"/>
      <point x="192" y="305" type="line"/>
      <point x="192" y="306" type="line"/>
      <point x="199" y="309"/>
      <point x="205" y="314"/>
      <point x="211" y="322" type="curve" smooth="yes"/>
      <point x="301" y="441" type="line" smooth="yes"/>
      <point x="320" y="466"/>
      <point x="333" y="498"/>
      <point x="335" y="510" type="curve"/>
      <point x="337" y="510" type="line"/>
      <point x="335" y="499"/>
      <point x="333" y="438"/>
      <point x="333" y="385" type="curve" smooth="yes"/>
    </contour>
  </outline>
</glyph>
<glyph name="five" format="2">
  <advance width="602"/>
  <unicode hex="0035"/>
  <outline>
    <contour>
      <point x="266" y="-13" type="curve" smooth="yes"/>
      <point x="417" y="-13"/>
      <point x="527" y="88"/>
      <point x="527" y="227" type="curve" smooth="yes"/>
      <point x="527" y="348"/>
      <point x="455" y="460"/>
      <point x="313" y="460" type="curve" smooth="yes"/>
      <point x="294" y="460"/>
      <point x="281" y="457"/>
      <point x="265" y="452" type="curve"/>
      <point x="263" y="454" type="line"/>
      <point x="303" y="639" type="line"/>
      <point x="209" y="577" type="line"/>
      <point x="481" y="577" type="line"/>
      <point x="481" y="700" type="line"/>
      <point x="187" y="700" type="line"/>
      <point x="97" y="298" type="line"/>
      <point x="153" y="328"/>
      <point x="205" y="342"/>
      <point x="261" y="342" type="curve" smooth="yes"/>
      <point x="335" y="342"/>
      <point x="382" y="298"/>
      <point x="382" y="227" type="curve" smooth="yes"/>
      <point x="382" y="159"/>
      <point x="330" y="117"/>
      <point x="267" y="117" type="curve" smooth="yes"/>
      <point x="208" y="117"/>
      <point x="171" y="137"/>
      <point x="128" y="180" type="curve"/>
      <point x="41" y="83" type="line"/>
      <point x="109" y="15"/>
      <point x="175" y="-13"/>
    </contour>
  </outline>
</glyph>
<glyph name="Z" format="2">
  <advance width="648"/>
  <unicode hex="005A"/>
  <anchor x="324" y="0" name="bottom"/>
  <anchor x="324" y="350" name="center"/>
  <anchor x="324" y="700" name="top"/>
  <outline>
    <contour>
      <point x="40" y="0" type="line"/>
      <point x="604" y="0" type="line"/>
      <point x="604" y="133" type="line"/>
      <point x="268" y="133" type="line"/>
      <point x="268" y="135" type="line"/>
      <point x="282" y="149"/>
      <point x="293" y="164"/>
      <point x="303" y="181" type="curve" smooth="yes"/>
      <point x="604" y="685" type="line"/>
      <point x="604" y="700" type="line"/>
      <point x="59" y="700" type="line"/>
      <point x="59" y="565" type="line"/>
      <point x="375" y="565" type="line"/>
      <point x="375" y="563" type="line"/>
      <point x="363" y="552"/>
      <point x="354" y="539"/>
      <point x="344" y="523" type="curve" smooth="yes"/>
      <point x="40" y="15" type="line"/>
    </contour>
  </outline>
</glyph>
<glyph name="underscore" format="2">
  <advance width="606"/>
  <unicode hex="005F"/>
  <outline>
    <contour>
      <point x="80" y="-115" type="line"/>
      <point x="526" y="-115" type="line"/>
      <point x="526" y="0" type="line"/>
      <point x="80" y="0" type="line"/>
    </contour>
  </outline>
</glyph>
<glyph name="degree" format="2">
  <advance width="423"/>
  <unicode hex="00B0"/>
  <outline>
    <contour>
      <point x="211" y="391" type="curve" smooth="yes"/>
      <point x="306" y="391"/>
      <point x="375" y="462"/>
      <point x="375" y="550" type="curve" smooth="yes"/>
      <point x="375" y="638"/>
      <point x="307" y="713"/>
      <point x="211" y="713" type="curve" smooth="yes"/>
      <point x="115" y="713"/>
      <point x="48" y="640"/>
      <point x="48" y="550" type="curve" smooth="yes"/>
      <point x="48" y="462"/>
      <point x="115" y="391"/>
    </contour>
    <contour>
      <point x="211" y="484" type="curve" smooth="yes"/>
      <point x="173" y="484"/>
      <point x="147" y="514"/>
      <point x="147" y="550" type="curve" smooth="yes"/>
      <point x="147" y="589"/>
      <point x="173" y="619"/>
      <point x="211" y="619" type="curve" smooth="yes"/>
      <point x="249" y="619"/>
      <point x="275" y="589"/>
      <point x="275" y="550" type="curve" smooth="yes"/>
      <point x="276" y="513"/>
      <point x="250" y="484"/>
    </contour>
  </outline>
</glyph>
<glyph name="idotless" format="2">
  <advance width="275"/>
  <unicode hex="0131"/>
  <anchor x="138" y="0" name="bottom"/>
  <anchor x="117" y="0" name="ogonek"/>
  <anchor x="138" y="505" name="top"/>
  <outline>
    <contour>
      <point x="70" y="0" type="line"/>
      <point x="205" y="0" type="line"/>
      <point x="205" y="505" type="line"/>
      <point x="70" y="505" type="line"/>
    </contour>
  </outline>
</glyph>
<glyph name="brevecomb" format="2">
  <unicode hex="0306"/>
  <anchor x="0" y="505" name="_top"/>
  <anchor x="0" y="660" name="top"/>
  <outline>
    <contour>
      <point x="0" y="553" type="curve" smooth="yes"/>
      <point x="99" y="553"/>
      <point x="160" y="608"/>
      <point x="160" y="695" type="curve"/>
      <point x="66" y="695" type="line"/>
      <point x="67" y="654"/>
      <point x="38" y="632"/>
      <point x="0" y="632" type="curve" smooth="yes"/>
      <point x="-38" y="632"/>
      <point x="-67" y="654"/>
      <point x="-66" y="695" type="curve"/>
      <point x="-160" y="695" type="line"/>
      <point x="-160" y="608"/>
      <point x="-98" y="553"/>
    </contour>
  </outline>
</glyph>
<glyph name="Germandbls" format="2">
  <advance width="731"/>
  <unicode hex="1E9E"/>
  <outline>
    <contour>
      <point x="457" y="-13" type="curve" smooth="yes"/>
      <point x="607" y="-13"/>
      <point x="698" y="100"/>
      <point x="698" y="212" type="curve" smooth="yes"/>
      <point x="698" y="284"/>
      <point x="665" y="384"/>
      <point x="549" y="406" type="curve"/>
      <point x="549" y="410" type="line"/>
      <point x="707" y="685" type="line"/>
      <point x="707" y="700" type="line"/>
      <point x="80" y="700" type="line"/>
      <point x="80" y="0" type="line"/>
      <point x="220" y="0" type="line"/>
      <point x="220" y="565" type="line"/>
      <point x="491" y="565" type="line"/>
      <point x="491" y="563" type="line"/>
      <point x="480" y="552"/>
      <point x="472" y="538"/>
      <point x="463" y="522" type="curve" smooth="yes"/>
      <point x="365" y="349" type="line"/>
      <point x="365" y="341" type="line"/>
      <point x="511" y="352"/>
      <point x="564" y="280"/>
      <point x="564" y="215" type="curve" smooth="yes"/>
      <point x="564" y="140"/>
      <point x="509" y="108"/>
      <point x="452" y="108" type="curve" smooth="yes"/>
      <point x="415" y="108"/>
      <point x="383" y="116"/>
      <point x="358" y="123" type="curve"/>
      <point x="358" y="4" type="line"/>
      <point x="383" y="-8"/>
      <point x="430" y="-13"/>
    </contour>
  </outline>
</glyph>
<glyph name="euro" format="2">
  <advance width="668"/>
  <unicode hex="20AC"/>
  <outline>
    <contour>
      <point x="404" y="27" type="curve" smooth="yes"/>
      <point x="513" y="27"/>
      <point x="593" y="64"/>
      <point x="646" y="128" type="curve"/>
      <point x="534" y="215" type="line"/>
      <point x="498" y="170"/>
      <point x="455" y="157"/>
      <point x="407" y="157" type="curve" smooth="yes"/>
      <point x="332" y="157"/>
      <point x="253" y="197"/>
      <point x="236" y="294" type="curve" smooth="yes"/>
      <point x="233" y="311" type="line"/>
      <point x="227" y="343"/>
      <point x="226" y="356"/>
      <point x="232" y="388" type="curve"/>
      <point x="236" y="406" type="line"/>
      <point x="260" y="502"/>
      <point x="332" y="543"/>
      <point x="404" y="543" type="curve" smooth="yes"/>
      <point x="449" y="543"/>
      <point x="506" y="531"/>
      <point x="548" y="487" type="curve"/>
      <point x="628" y="583" type="line"/>
      <point x="574" y="648"/>
      <point x="500" y="673"/>
      <point x="404" y="673" type="curve" smooth="yes"/>
      <point x="220" y="673"/>
      <point x="85" y="540"/>
      <point x="85" y="349" type="curve" smooth="yes"/>
      <point x="85" y="159"/>
      <point x="228" y="27"/>
    </contour>
    <contour>
      <point x="-12" y="237" type="line"/>
      <point x="383" y="237" type="line"/>
      <point x="440" y="322" type="line"/>
      <point x="46" y="322" type="line"/>
    </contour>
    <contour>
      <point x="-16" y="378" type="line"/>
      <point x="475" y="378" type="line"/>
      <point x="533" y="463" type="line"/>
      <point x="43" y="463" type="line"/>
    </contour>
  </outline>
</glyph>
<glyph name="manat" format="2">
  <advance width="564"/>
  <unicode hex="20BC"/>
  <outline>
    <contour>
      <point x="47" y="30" type="line"/>
      <point x="182" y="30" type="line"/>
      <point x="182" y="190" type="line" smooth="yes"/>
      <point x="182" y="280"/>
      <point x="220" y="319"/>
      <point x="286" y="319" type="curve" smooth="yes"/>
      <point x="355" y="319"/>
      <point x="382" y="280"/>
      <point x="382" y="190" type="curve" smooth="yes"/>
      <point x="382" y="30" type="line"/>
      <point x="517" y="30" type="line"/>
      <point x="517" y="223" type="line" smooth="yes"/>
      <point x="517" y="354"/>
      <point x="437" y="437"/>
      <point x="284" y="437" type="curve" smooth="yes"/>
      <point x="133" y="437"/>
      <point x="47" y="354"/>
      <point x="47" y="223" type="curve" smooth="yes"/>
    </contour>
    <contour>
      <point x="240" y="30" type="line"/>
      <point x="325" y="30" type="line"/>
      <point x="325" y="505" type="line"/>
      <point x="240" y="505" type="line"/>
    </contour>
  </outline>
</glyph>
<glyph name="literSign" format="2">
  <advance width="512"/>
  <unicode hex="2113"/>
  <outline>
    <contour>
      <point x="67" y="122"/>
      <point x="143" y="-11"/>
      <point x="299" y="-11" type="curve" smooth="yes"/>
      <point x="393" y="-11"/>
      <point x="468" y="66"/>
      <point x="502" y="168" type="curve"/>
      <point x="428" y="214" type="line"/>
      <point x="393" y="127"/>
      <point x="343" y="105"/>
      <point x="305" y="105" type="curve" smooth="yes"/>
      <point x="229" y="105"/>
      <point x="203" y="205"/>
      <point x="203" y="287" type="curve" smooth="yes"/>
      <point x="203" y="350"/>
      <point x="216" y="425"/>
      <point x="238" y="503" type="curve" smooth="yes"/>
      <point x="254" y="558"/>
      <point x="277" y="582"/>
      <point x="295" y="582" type="curve" smooth="yes"/>
      <point x="346" y="582"/>
      <point x="336" y="519"/>
      <point x="327" y="487" type="curve" smooth="yes"/>
      <point x="282" y="338"/>
      <point x="171" y="260"/>
      <point x="2" y="143" type="curve"/>
      <point x="58" y="67" type="line"/>
      <point x="225" y="182"/>
      <point x="372" y="268"/>
      <point x="431" y="463" type="curve" smooth="yes"/>
      <point x="466" y="582"/>
      <point x="434" y="714"/>
      <point x="294" y="714" type="curve" smooth="yes"/>
      <point x="220" y="714"/>
      <point x="141" y="661"/>
      <point x="106" y="539" type="curve" smooth="yes"/>
      <point x="83" y="458"/>
      <point x="67" y="370"/>
      <point x="67" y="290" type="curve" smooth="yes"/>
    </contour>
  </outline>
</glyph>
<glyph name="infinity" format="2">
  <advance width="787"/>
  <unicode hex="221E"/>
  <outline>
    <contour>
      <point x="209" y="92" type="curve" smooth="yes"/>
      <point x="315" y="92"/>
      <point x="378" y="153"/>
      <point x="442" y="262" type="curve"/>
      <point x="349" y="262" type="line"/>
      <point x="407" y="153"/>
      <point x="471" y="92"/>
      <point x="578" y="92" type="curve" smooth="yes"/>
      <point x="696" y="92"/>
      <point x="777" y="181"/>
      <point x="777" y="287" type="curve" smooth="yes"/>
      <point x="777" y="392"/>
      <point x="696" y="482"/>
      <point x="578" y="482" type="curve" smooth="yes"/>
      <point x="471" y="482"/>
      <point x="407" y="420"/>
      <point x="345" y="312" type="curve"/>
      <point x="438" y="312" type="line"/>
      <point x="378" y="420"/>
      <point x="315" y="482"/>
      <point x="209" y="482" type="curve" smooth="yes"/>
      <point x="91" y="482"/>
      <point x="10" y="392"/>
      <point x="10" y="287" type="curve" smooth="yes"/>
      <point x="10" y="181"/>
      <point x="91" y="92"/>
    </contour>
    <contour>
      <point x="211" y="200" type="curve" smooth="yes"/>
      <point x="163" y="200"/>
      <point x="122" y="239"/>
      <point x="122" y="287" type="curve" smooth="yes"/>
      <point x="122" y="335"/>
      <point x="163" y="374"/>
      <point x="211" y="374" type="curve" smooth="yes"/>
      <point x="288" y="374"/>
      <point x="312" y="319"/>
      <point x="361" y="249" type="curve"/>
      <point x="361" y="325" type="line"/>
      <point x="312" y="255"/>
      <point x="288" y="200"/>
    </contour>
    <contour>
      <point x="575" y="200" type="curve" smooth="yes"/>
      <point x="498" y="200"/>
      <point x="474" y="255"/>
      <point x="425" y="325" type="curve"/>
      <point x="425" y="249" type="line"/>
      <point x="474" y="319"/>
      <point x="498" y="374"/>
      <point x="575" y="374" type="curve" smooth="yes"/>
      <point x="623" y="374"/>
      <point x="665" y="335"/>
      <point x="665" y="287" type="curve" smooth="yes"/>
      <point x="665" y="239"/>
      <point x="623" y="200"/>
    </contour>
  </outline>
</glyph>
<glyph name="blackSmallSquare" format="2">
  <advance width="397"/>
  <unicode hex="25AA"/>
  <outline>
    <contour>
      <point x="90" y="257" type="line"/>
      <point x="307" y="257" type="line"/>
      <point x="307" y="469" type="line"/>
      <point x="90" y="469" type="line"/>
    </contour>
  </outline>
</glyph>
<glyph name="rightBlackTriangle" format="2">
  <advance width="821"/>
  <unicode hex="25B6"/>
  <outline>
    <contour>
      <point x="90" y="728" type="line"/>
      <point x="90" y="-13" type="line"/>
      <point x="731" y="357" type="line"/>
    </contour>
  </outline>
</glyph>
<glyph name="blackSmallStar" format="2">
  <advance width="480"/>
  <unicode hex="2B51"/>
  <outline>
    <contour>
      <point x="116" y="199" type="line"/>
      <point x="239" y="289" type="line"/>
      <point x="363" y="199" type="line"/>
      <point x="316" y="344" type="line"/>
      <point x="440" y="434" type="line"/>
      <point x="287" y="434" type="line"/>
      <point x="239" y="579" type="line"/>
      <point x="192" y="434" type="line"/>
      <point x="40" y="434" type="line"/>
      <point x="163" y="344" type="line"/>
    </contour>
  </outline>
</glyph>
<glyph name="c.ss10" format="2">
  <advance width="471"/>
  <anchor x="299" y="0" name="bottom"/>
  <anchor x="408" y="0" name="ogonek"/>
  <anchor x="299" y="505" name="top"/>
  <outline>
    <contour>
      <point x="319" y="-14" type="curve" smooth="yes"/>
      <point x="360" y="-14"/>
      <point x="399" y="-6"/>
      <point x="433" y="8" type="curve"/>
      <point x="438" y="156" type="line"/>
      <point x="408" y="127"/>
      <point x="369" y="113"/>
      <point x="319" y="113" type="curve" smooth="yes"/>
      <point x="251" y="113"/>
      <point x="175" y="165"/>
      <point x="175" y="254" type="curve" smooth="yes"/>
      <point x="175" y="341"/>
      <point x="251" y="391"/>
      <point x="319" y="391" type="curve" smooth="yes"/>
      <point x="369" y="391"/>
      <point x="412" y="373"/>
      <point x="433" y="355" type="curve"/>
      <point x="433" y="496" type="line"/>
      <point x="399" y="510"/>
      <point x="360" y="518"/>
      <point x="319" y="518" type="curve" smooth="yes"/>
      <point x="155" y="518"/>
      <point x="40" y="418"/>
      <point x="40" y="254" type="curve" smooth="yes"/>
      <point x="40" y="89"/>
      <point x="155" y="-14"/>
    </contour>
  </outline>
</glyph>
<glyph name="eight.numr" format="2">
  <advance width="330"/>
  <outline>
    <contour>
      <point x="165" y="308" type="curve" smooth="yes"/>
      <point x="236" y="308"/>
      <point x="299" y="351"/>
      <point x="299" y="420" type="curve" smooth="yes"/>
      <point x="299" y="456"/>
      <point x="287" y="491"/>
      <point x="244" y="515" type="curve"/>
      <point x="244" y="517" type="line"/>
      <point x="274" y="532"/>
      <point x="288" y="563"/>
      <point x="288" y="596" type="curve" smooth="yes"/>
      <point x="288" y="661"/>
      <point x="241" y="707"/>
      <point x="165" y="707" type="curve" smooth="yes"/>
      <point x="72" y="707"/>
      <point x="40" y="643"/>
      <point x="40" y="596" type="curve" smooth="yes"/>
      <point x="40" y="564"/>
      <point x="56" y="532"/>
      <point x="84" y="517" type="curve"/>
      <point x="84" y="515" type="line"/>
      <point x="47" y="493"/>
      <point x="31" y="463"/>
      <point x="31" y="420" type="curve" smooth="yes"/>
      <point x="31" y="352"/>
      <point x="89" y="308"/>
    </contour>
    <contour>
      <point x="165" y="380" type="curve" smooth="yes"/>
      <point x="133" y="380"/>
      <point x="112" y="405"/>
      <point x="112" y="430" type="curve" smooth="yes"/>
      <point x="112" y="460"/>
      <point x="135" y="480"/>
      <point x="165" y="480" type="curve" smooth="yes"/>
      <point x="195" y="480"/>
      <point x="216" y="460"/>
      <point x="216" y="430" type="curve" smooth="yes"/>
      <point x="216" y="408"/>
      <point x="199" y="380"/>
    </contour>
    <contour>
      <point x="165" y="549" type="curve" smooth="yes"/>
      <point x="132" y="549"/>
      <point x="121" y="573"/>
      <point x="121" y="593" type="curve" smooth="yes"/>
      <point x="121" y="618"/>
      <point x="141" y="634"/>
      <point x="165" y="634" type="curve" smooth="yes"/>
      <point x="189" y="634"/>
      <point x="209" y="618"/>
      <point x="209" y="593" type="curve" smooth="yes"/>
      <point x="209" y="573"/>
      <point x="194" y="549"/>
    </contour>
  </outline>
</glyph>
<glyph name="euro.ss10" format="2">
  <advance width="557"/>
  <outline>
    <contour>
      <point x="365" y="27" type="curve" smooth="yes"/>
      <point x="420" y="27"/>
      <point x="468" y="35"/>
      <point x="514" y="59" type="curve"/>
      <point x="525" y="218" type="line"/>
      <point x="481" y="181"/>
      <point x="429" y="165"/>
      <point x="367" y="165" type="curve" smooth="yes"/>
      <point x="296" y="165"/>
      <point x="219" y="188"/>
      <point x="195" y="284" type="curve"/>
      <point x="188" y="301" type="line"/>
      <point x="182" y="333"/>
      <point x="181" y="366"/>
      <point x="187" y="398" type="curve"/>
      <point x="194" y="414" type="line"/>
      <point x="217" y="510"/>
      <point x="291" y="535"/>
      <point x="365" y="535" type="curve" smooth="yes"/>
      <point x="427" y="535"/>
      <point x="481" y="516"/>
      <point x="524" y="470" type="curve"/>
      <point x="524" y="633" type="line"/>
      <point x="484" y="659"/>
      <point x="426" y="673"/>
      <point x="365" y="673" type="curve" smooth="yes"/>
      <point x="189" y="673"/>
      <point x="42" y="550"/>
      <point x="42" y="349" type="curve" smooth="yes"/>
      <point x="42" y="149"/>
      <point x="197" y="27"/>
    </contour>
    <contour>
      <point x="114" y="237" type="line"/>
      <point x="457" y="237" type="line"/>
      <point x="457" y="323" type="line"/>
      <point x="114" y="323" type="line"/>
    </contour>
    <contour>
      <point x="114" y="378" type="line"/>
      <point x="457" y="378" type="line"/>
      <point x="457" y="464" type="line"/>
      <point x="114" y="464" type="line"/>
    </contour>
  </outline>
</glyph>
<glyph name="f_i.ss11" format="2">
  <advance width="650"/>
  <anchor x="513" y="0" name="bottom_1"/>
  <anchor x="492" y="0" name="ogonek_1"/>
  <anchor x="513" y="505" name="top_1"/>
  <anchor x="392" y="0" name="caret_1"/>
  <outline>
    <contour>
      <point x="113" y="0" type="line"/>
      <point x="248" y="0" type="line"/>
      <point x="248" y="547" type="line" smooth="yes"/>
      <point x="248" y="598"/>
      <point x="286" y="630"/>
      <point x="347" y="630" type="curve" smooth="yes"/>
      <point x="405" y="630"/>
      <point x="441" y="601"/>
      <point x="441" y="554" type="curve"/>
      <point x="576" y="554" type="line"/>
      <point x="576" y="668"/>
      <point x="483" y="753"/>
      <point x="347" y="753" type="curve" smooth="yes"/>
      <point x="210" y="753"/>
      <point x="113" y="668"/>
      <point x="113" y="554" type="curve" smooth="yes"/>
    </contour>
    <contour>
      <point x="20" y="385" type="line"/>
      <point x="387" y="385" type="line"/>
      <point x="387" y="505" type="line"/>
      <point x="20" y="505" type="line"/>
    </contour>
    <component base="idotless" xOffset="375"/>
  </outline>
</glyph>
<glyph name="four.numr" format="2">
  <advance width="348"/>
  <outline>
    <contour>
      <point x="184" y="315" type="line"/>
      <point x="266" y="315" type="line"/>
      <point x="266" y="421" type="line"/>
      <point x="309" y="421" type="line"/>
      <point x="309" y="492" type="line"/>
      <point x="266" y="492" type="line"/>
      <point x="266" y="708" type="line"/>
      <point x="194" y="708" type="line"/>
      <point x="6" y="452" type="line"/>
      <point x="6" y="421" type="line"/>
      <point x="184" y="421" type="line"/>
    </contour>
    <contour>
      <point x="121" y="492" type="line"/>
      <point x="121" y="493" type="line"/>
      <point x="121" y="493"/>
      <point x="123" y="493"/>
      <point x="124" y="495" type="curve" smooth="yes"/>
      <point x="172" y="559" type="line" smooth="yes"/>
      <point x="175" y="562"/>
      <point x="180" y="572"/>
      <point x="183" y="577" type="curve"/>
      <point x="186" y="577" type="line"/>
      <point x="185" y="573"/>
      <point x="184" y="563"/>
      <point x="184" y="558" type="curve" smooth="yes"/>
      <point x="184" y="492" type="line"/>
    </contour>
  </outline>
</glyph>
<glyph name="hookabovecombviet" format="2">
  <advance width="300"/>
  <anchor x="0" y="505" name="_top"/>
  <anchor x="0" y="705" name="top"/>
  <outline>
    <contour>
      <point x="-29" y="577" type="curve"/>
      <point x="0" y="532" type="line"/>
      <point x="40" y="548"/>
      <point x="65" y="576"/>
      <point x="65" y="619" type="curve" smooth="yes"/>
      <point x="65" y="669"/>
      <point x="31" y="721"/>
      <point x="-57" y="721" type="curve" smooth="yes"/>
      <point x="-86" y="721"/>
      <point x="-115" y="713"/>
      <point x="-137" y="700" type="curve"/>
      <point x="-92" y="625" type="line"/>
      <point x="-84" y="630"/>
      <point x="-71" y="636"/>
      <point x="-51" y="636" type="curve" smooth="yes"/>
      <point x="-23" y="636"/>
      <point x="-4" y="624"/>
      <point x="-4" y="607" type="curve" smooth="yes"/>
      <point x="-4" y="589"/>
      <point x="-16" y="580"/>
    </contour>
  </outline>
</glyph>
<glyph name="two.numr" format="2">
  <advance width="347"/>
  <outline>
    <contour>
      <point x="23" y="315" type="line"/>
      <point x="301" y="315" type="line"/>
      <point x="301" y="389" type="line"/>
      <point x="176" y="389" type="line"/>
      <point x="176" y="390" type="line"/>
      <point x="184" y="393"/>
      <point x="210" y="422"/>
      <point x="215" y="429" type="curve" smooth="yes"/>
      <point x="265" y="494" type="line" smooth="yes"/>
      <point x="287" y="524"/>
      <point x="298" y="548"/>
      <point x="298" y="584" type="curve" smooth="yes"/>
      <point x="298" y="658"/>
      <point x="236" y="708"/>
      <point x="162" y="708" type="curve" smooth="yes"/>
      <point x="99" y="708"/>
      <point x="23" y="670"/>
      <point x="23" y="569" type="curve"/>
      <point x="110" y="569" type="line"/>
      <point x="110" y="607"/>
      <point x="124" y="630"/>
      <point x="162" y="630" type="curve" smooth="yes"/>
      <point x="194" y="630"/>
      <point x="213" y="610"/>
      <point x="213" y="580" type="curve" smooth="yes"/>
      <point x="213" y="555"/>
      <point x="192" y="528"/>
      <point x="176" y="508" type="curve" smooth="yes"/>
      <point x="23" y="329" type="line"/>
    </contour>
  </outline>
</glyph>
<glyph name="u.ss10" format="2">
  <advance width="600"/>
  <anchor x="302" y="0" name="bottom"/>
  <anchor x="297" y="0" name="ogonek"/>
  <anchor x="304" y="505" name="top"/>
  <anchor x="532" y="505" name="topright"/>
  <outline>
    <contour>
      <point x="302" y="-12" type="curve" smooth="yes"/>
      <point x="455" y="-12"/>
      <point x="535" y="71"/>
      <point x="535" y="202" type="curve" smooth="yes"/>
      <point x="535" y="505" type="line"/>
      <point x="400" y="505" type="line"/>
      <point x="400" y="235" type="line" smooth="yes"/>
      <point x="400" y="145"/>
      <point x="373" y="106"/>
      <point x="304" y="106" type="curve" smooth="yes"/>
      <point x="238" y="106"/>
      <point x="200" y="145"/>
      <point x="200" y="235" type="curve" smooth="yes"/>
      <point x="200" y="505" type="line"/>
      <point x="65" y="505" type="line"/>
      <point x="65" y="202" type="line" smooth="yes"/>
      <point x="65" y="71"/>
      <point x="151" y="-12"/>
    </contour>
  </outline>
</glyph>
